<svg width="499.99999999999994" height="499.99999999999994" xmlns="http://www.w3.org/2000/svg">

 <g>
  <title>background</title>
  <rect fill="none" id="canvas_background" height="502" width="502" y="-1" x="-1"/>
 </g>
 <g>
  <title>Layer 1</title>
  <path stroke="null" id="svg_2" d="m484.404663,415.709388l-218.274862,-218.274862c7.604608,-13.416504 5.731143,-30.792202 -5.69192,-42.212958l-0.835215,-0.835215l113.012413,-113.012413c5.304306,-5.304306 7.551542,-12.858156 6.010317,-20.208969c-1.534304,-7.309283 -6.594044,-13.287299 -13.536479,-15.993672c-6.43946,-2.510259 -13.84334,-3.783846 -22.003989,-3.783846c-38.622918,0 -97.117951,29.163303 -158.00096,78.480201l-4.75288,-4.75288c-6.635574,-6.637881 -15.469932,-10.292523 -24.871867,-10.292523c-6.19028,0 -12.117537,1.612749 -17.350319,4.591374l-1.241286,-1.241286c-9.17352,-9.17352 -21.369502,-14.224032 -34.340712,-14.224032c-12.973517,0 -25.169499,5.050512 -34.340712,14.224032c-9.17352,9.17352 -14.224032,21.367195 -14.224032,34.340712c0,12.973517 5.050512,25.167192 14.224032,34.340712l1.250515,1.250515c-7.604608,13.416504 -5.731143,30.792202 5.69192,42.215265l4.757494,4.757494c-48.613195,60.149312 -91.737506,136.292296 -74.700969,179.998027c3.317787,8.511347 11.390762,14.00946 20.564281,14.00946c5.901877,0 11.455364,-2.302609 15.636052,-6.483298l113.012413,-113.012413l0.835215,0.835215c6.637881,6.637881 15.469932,10.292523 24.871867,10.292523c6.19028,0 12.117537,-1.612749 17.350319,-4.591374l218.263326,218.263326c9.17352,9.17352 21.369502,14.224032 34.340712,14.224032c12.971209,0 25.167192,-5.050512 34.340712,-14.224032c18.939996,-18.933075 18.939996,-49.741428 0.004614,-68.679117zm-304.297376,-171.770469c-2.249543,0 -4.358345,-0.869823 -5.936486,-2.447964l-19.770597,-19.772904l-125.997465,125.997465c-1.340497,-13.208854 3.474678,-32.739499 13.815653,-55.315679c13.90102,-30.344601 36.717152,-64.775295 65.98428,-99.57053l7.909162,-9.401935l-22.045519,-22.045519c-3.27395,-3.27395 -3.27395,-8.601329 0,-11.875278l55.458727,-55.458727c1.580448,-1.580448 3.68925,-2.450271 5.936486,-2.450271c2.249543,0 4.358345,0.869823 5.936486,2.450271l22.045519,22.045519l9.399628,-7.906854c58.681918,-49.358428 116.251754,-80.021426 150.244075,-80.021426c1.626592,0 3.174739,0.073831 4.639826,0.223801l-125.995158,125.995158l19.770597,19.770597c3.27395,3.27395 3.27395,8.601329 0,11.875278l-55.458727,55.458727c-1.580448,1.580448 -3.68925,2.450271 -5.936486,2.450271zm-98.469984,-147.627684c0.39915,-1.347418 0.929811,-2.664843 1.594291,-3.929201c0.99672,-1.896538 2.29338,-3.677714 3.887671,-5.274313c2.657921,-2.657921 5.832661,-4.487549 9.201207,-5.48427c2.021128,-0.597571 4.111472,-0.89751 6.201816,-0.89751c2.090344,0 4.180689,0.299939 6.201816,0.89751c2.694837,0.798299 5.265084,2.12726 7.546927,3.989189c0.569884,0.466059 1.123618,0.964419 1.654279,1.495081l0.329933,0.329933l-30.81066,30.81066l-0.329933,-0.329933c-3.19089,-3.19089 -5.184331,-7.124706 -5.98263,-11.243099c-0.265331,-1.372798 -0.39915,-2.766361 -0.39915,-4.159924c0.006922,-2.092652 0.306861,-4.182996 0.904432,-6.204124zm390.11224,355.829209c-0.198421,2.083423 -0.696781,4.143773 -1.495081,6.109527c-1.06363,2.623313 -2.657921,5.080506 -4.785181,7.207766s-4.584453,3.721551 -7.207766,4.785181c-1.310503,0.532969 -2.664843,0.929811 -4.037641,1.197449c-1.372798,0.265331 -2.766361,0.39915 -4.162231,0.39915c-5.576559,0 -11.15081,-2.12726 -15.40533,-6.38178l-217.35428,-217.35428l30.81066,-30.81066l43.585756,43.585756l173.768524,173.768524c2.12726,2.12726 3.721551,4.584453 4.785181,7.207766c0.798299,1.968061 1.29666,4.026105 1.495081,6.109527c0.133819,1.386641 0.133819,2.787126 0.002307,4.176074z"/>
 </g>
</svg>